<svg xmlns="http://www.w3.org/2000/svg" viewBox="0 0 261.22 46.54"><defs><style>.cls-1{fill:#3855fc;}</style></defs><title>mebook-logo</title><g id="Layer_2" data-name="Layer 2"><g id="Layer_1-2" data-name="Layer 1"><path d="M0,19.22H11.62v3.6h.09c1.88-2.45,4.8-4.32,9.8-4.32,5.18,0,7.29,1.78,8.69,4.37,1.63-2.4,4.8-4.37,9.64-4.37,5.76,0,10.37,2.5,10.37,8.88v18.1h-12V30.65c0-2.64-1.1-3.51-3.21-3.51-2.5,0-4.08,1.2-4.08,4.42V45.48H19.3V30.65c0-2.64-1.11-3.51-3.22-3.51-2.49,0-4.08,1.2-4.08,4.42V45.48H0Z"/><path d="M93.07,37.61a11.33,11.33,0,0,1-6,6.53c-3.07,1.53-7.2,2.4-12.72,2.4-12.62,0-19.82-4.61-19.82-14.21,0-9.07,6.91-14.16,18.72-14.16,11.62,0,20.16,3.88,20,17H66.82c0,1.87,2,4.75,7.24,4.75,3.12,0,5-.67,6.25-2.3Zm-11.95-8.5c-.24-2.83-3-4.61-7.1-4.61s-6.58,1.3-7.2,4.61Z"/><path d="M97.73,0h12V12.19h.09c2.07-2.49,5.52-3.69,10.42-3.69,7.78,0,14.93,4.27,14.93,14s-7.15,14-14.93,14c-5.33,0-8.64-1.34-10.8-3.84h-.1v2.78H97.73ZM116.3,28.47c4.66,0,6.58-2.5,6.58-6s-2.21-6-6.53-6c-4.65,0-6.62,2.26-6.62,6S111.7,28.47,116.3,28.47Z"/><path d="M157.49,8.16c13.54,0,19.44,4.51,19.44,14.16S171,36.53,157.49,36.53,138.05,32,138.05,22.32,144,8.16,157.49,8.16Zm0,20.59c4.85,0,6.86-2.2,6.86-6.43s-2-6.38-6.86-6.38-6.87,2.25-6.87,6.38S152.69,28.75,157.49,28.75Z"/><path d="M199.25,8.16c13.54,0,19.44,4.51,19.44,14.16s-5.9,14.21-19.44,14.21S179.81,32,179.81,22.32,185.71,8.16,199.25,8.16Zm0,20.59c4.85,0,6.86-2.2,6.86-6.43s-2-6.38-6.86-6.38-6.87,2.25-6.87,6.38S194.45,28.75,199.25,28.75Z"/><path d="M223,0h12V17.71l9.07-8.49H260l-12,9.79,13.16,16.46H245l-6.24-8.83L235,29.71v5.76H223Z"/><rect class="cls-1" x="97.73" y="39.96" width="28.92" height="5.71"/></g></g></svg>