<svg xmlns="http://www.w3.org/2000/svg" viewBox="0 0 33.2 33.2"><title>Asset 5</title><g id="Layer_2" data-name="Layer 2"><g id="Layer_1-2" data-name="Layer 1"><rect width="1.58" height="11.07" style="fill:#fff"/><rect y="12.65" width="1.58" height="1.58" style="fill:#fff"/><rect y="15.81" width="1.58" height="3.16" style="fill:#fff"/><rect y="22.14" width="1.58" height="3.16" style="fill:#fff"/><rect y="25.3" width="1.58" height="6.32" style="fill:#fff"/><rect y="31.62" width="1.58" height="1.58" style="fill:#fff"/><rect x="1.58" width="1.58" height="1.58" style="fill:#fff"/><rect x="1.58" y="9.49" width="1.58" height="1.58" style="fill:#fff"/><rect x="1.58" y="14.23" width="1.58" height="1.58" style="fill:#fff"/><rect x="1.58" y="17.39" width="1.58" height="1.58" style="fill:#fff"/><rect x="1.58" y="22.14" width="1.58" height="1.58" style="fill:#fff"/><rect x="1.58" y="31.62" width="1.58" height="1.58" style="fill:#fff"/><rect x="3.16" width="1.58" height="1.58" style="fill:#fff"/><rect x="3.16" y="3.16" width="1.58" height="4.74" style="fill:#fff"/><rect x="3.16" y="9.49" width="1.58" height="1.58" style="fill:#fff"/><rect x="3.16" y="12.65" width="1.58" height="3.16" style="fill:#fff"/><rect x="3.16" y="22.14" width="1.58" height="1.58" style="fill:#fff"/><rect x="3.16" y="25.3" width="1.58" height="4.74" style="fill:#fff"/><rect x="3.16" y="31.62" width="1.58" height="1.58" style="fill:#fff"/><rect x="4.74" width="1.58" height="1.58" style="fill:#fff"/><rect x="4.74" y="3.16" width="1.58" height="4.74" style="fill:#fff"/><rect x="4.74" y="9.49" width="1.58" height="1.58" style="fill:#fff"/><rect x="4.74" y="14.23" width="1.58" height="3.16" style="fill:#fff"/><rect x="4.74" y="18.97" width="1.58" height="1.58" style="fill:#fff"/><rect x="4.74" y="22.14" width="1.58" height="1.58" style="fill:#fff"/><rect x="4.74" y="25.3" width="1.58" height="4.74" style="fill:#fff"/><rect x="4.74" y="31.62" width="1.58" height="1.58" style="fill:#fff"/><rect x="6.32" width="1.58" height="1.58" style="fill:#fff"/><rect x="6.32" y="3.16" width="1.58" height="4.74" style="fill:#fff"/><rect x="6.32" y="9.49" width="1.58" height="1.58" style="fill:#fff"/><rect x="6.32" y="15.81" width="1.58" height="4.74" style="fill:#fff"/><rect x="6.32" y="22.14" width="1.58" height="1.58" style="fill:#fff"/><rect x="6.32" y="25.3" width="1.58" height="4.74" style="fill:#fff"/><rect x="6.32" y="31.62" width="1.58" height="1.58" style="fill:#fff"/><rect x="7.91" width="1.58" height="1.58" style="fill:#fff"/><rect x="7.91" y="9.49" width="1.58" height="1.58" style="fill:#fff"/><rect x="7.91" y="17.39" width="1.58" height="1.58" style="fill:#fff"/><rect x="7.91" y="22.14" width="1.58" height="1.58" style="fill:#fff"/><rect x="7.91" y="31.62" width="1.58" height="1.58" style="fill:#fff"/><rect x="9.49" width="1.58" height="11.07" style="fill:#fff"/><rect x="9.49" y="12.65" width="1.58" height="1.58" style="fill:#fff"/><rect x="9.49" y="15.81" width="1.58" height="1.58" style="fill:#fff"/><rect x="9.49" y="18.97" width="1.58" height="1.58" style="fill:#fff"/><rect x="9.49" y="22.14" width="1.58" height="3.16" style="fill:#fff"/><rect x="9.49" y="25.3" width="1.58" height="6.32" style="fill:#fff"/><rect x="9.49" y="31.62" width="1.58" height="1.58" style="fill:#fff"/><rect x="11.07" y="12.65" width="1.58" height="1.58" style="fill:#fff"/><rect x="12.65" width="1.58" height="1.58" style="fill:#fff"/><rect x="12.65" y="3.16" width="1.58" height="1.58" style="fill:#fff"/><rect x="12.65" y="7.91" width="1.58" height="3.16" style="fill:#fff"/><rect x="12.65" y="14.23" width="1.58" height="1.58" style="fill:#fff"/><rect x="12.65" y="17.39" width="1.58" height="6.32" style="fill:#fff"/><rect x="12.65" y="28.46" width="1.58" height="1.58" style="fill:#fff"/><rect x="12.65" y="31.62" width="1.58" height="1.58" style="fill:#fff"/><rect x="14.23" width="1.58" height="3.16" style="fill:#fff"/><rect x="14.23" y="4.74" width="1.58" height="4.74" style="fill:#fff"/><rect x="14.23" y="12.65" width="1.58" height="1.58" style="fill:#fff"/><rect x="14.23" y="15.81" width="1.58" height="3.16" style="fill:#fff"/><rect x="14.23" y="20.55" width="1.58" height="3.16" style="fill:#fff"/><rect x="14.23" y="26.88" width="1.58" height="4.74" style="fill:#fff"/><rect x="14.23" y="31.62" width="1.58" height="1.58" style="fill:#fff"/><rect x="15.81" y="1.58" width="1.58" height="1.58" style="fill:#fff"/><rect x="15.81" y="4.74" width="1.58" height="3.16" style="fill:#fff"/><rect x="15.81" y="9.49" width="1.58" height="1.58" style="fill:#fff"/><rect x="15.81" y="14.23" width="1.58" height="1.58" style="fill:#fff"/><rect x="15.81" y="17.39" width="1.58" height="4.74" style="fill:#fff"/><rect x="15.81" y="28.46" width="1.58" height="3.16" style="fill:#fff"/><rect x="17.39" y="3.16" width="1.58" height="1.58" style="fill:#fff"/><rect x="17.39" y="11.07" width="1.58" height="3.16" style="fill:#fff"/><rect x="17.39" y="20.55" width="1.58" height="4.74" style="fill:#fff"/><rect x="17.39" y="25.3" width="1.58" height="1.58" style="fill:#fff"/><rect x="18.97" width="1.58" height="1.58" style="fill:#fff"/><rect x="18.97" y="6.32" width="1.58" height="1.58" style="fill:#fff"/><rect x="18.97" y="9.49" width="1.58" height="1.58" style="fill:#fff"/><rect x="18.97" y="12.65" width="1.58" height="1.58" style="fill:#fff"/><rect x="18.97" y="17.39" width="1.58" height="1.58" style="fill:#fff"/><rect x="18.97" y="22.14" width="1.58" height="1.58" style="fill:#fff"/><rect x="18.97" y="25.3" width="1.58" height="1.58" style="fill:#fff"/><rect x="18.97" y="30.04" width="1.58" height="1.58" style="fill:#fff"/><rect x="20.55" y="17.39" width="1.58" height="1.58" style="fill:#fff"/><rect x="20.55" y="22.14" width="1.58" height="1.58" style="fill:#fff"/><rect x="20.55" y="28.46" width="1.58" height="1.58" style="fill:#fff"/><rect x="20.55" y="31.62" width="1.58" height="1.58" style="fill:#fff"/><rect x="22.13" width="1.58" height="11.07" style="fill:#fff"/><rect x="22.13" y="17.39" width="1.58" height="3.16" style="fill:#fff"/><rect x="22.13" y="22.14" width="1.58" height="3.16" style="fill:#fff"/><rect x="22.13" y="25.3" width="1.58" height="1.58" style="fill:#fff"/><rect x="22.13" y="28.46" width="1.58" height="1.58" style="fill:#fff"/><rect x="22.13" y="31.62" width="1.58" height="1.58" style="fill:#fff"/><rect x="23.72" width="1.58" height="1.58" style="fill:#fff"/><rect x="23.72" y="9.49" width="1.58" height="1.58" style="fill:#fff"/><rect x="23.72" y="12.65" width="1.58" height="4.74" style="fill:#fff"/><rect x="23.72" y="18.97" width="1.58" height="3.16" style="fill:#fff"/><rect x="23.72" y="25.3" width="1.58" height="4.74" style="fill:#fff"/><rect x="23.72" y="31.62" width="1.58" height="1.58" style="fill:#fff"/><rect x="25.3" width="1.58" height="1.58" style="fill:#fff"/><rect x="25.3" y="3.16" width="1.58" height="4.74" style="fill:#fff"/><rect x="25.3" y="9.49" width="1.58" height="1.58" style="fill:#fff"/><rect x="25.3" y="18.97" width="1.58" height="1.58" style="fill:#fff"/><rect x="25.3" y="31.62" width="1.58" height="1.58" style="fill:#fff"/><rect x="26.88" width="1.58" height="1.58" style="fill:#fff"/><rect x="26.88" y="3.16" width="1.58" height="4.74" style="fill:#fff"/><rect x="26.88" y="9.49" width="1.58" height="1.58" style="fill:#fff"/><rect x="26.88" y="15.81" width="1.58" height="3.16" style="fill:#fff"/><rect x="26.88" y="22.14" width="1.58" height="1.58" style="fill:#fff"/><rect x="26.88" y="26.88" width="1.58" height="1.58" style="fill:#fff"/><rect x="26.88" y="30.04" width="1.58" height="1.58" style="fill:#fff"/><rect x="28.46" width="1.58" height="1.58" style="fill:#fff"/><rect x="28.46" y="3.16" width="1.58" height="4.74" style="fill:#fff"/><rect x="28.46" y="9.49" width="1.58" height="1.58" style="fill:#fff"/><rect x="28.46" y="12.65" width="1.58" height="3.16" style="fill:#fff"/><rect x="28.46" y="17.39" width="1.58" height="3.16" style="fill:#fff"/><rect x="28.46" y="22.14" width="1.58" height="3.16" style="fill:#fff"/><rect x="28.46" y="25.3" width="1.58" height="6.32" style="fill:#fff"/><rect x="28.46" y="31.62" width="1.58" height="1.58" style="fill:#fff"/><rect x="30.04" width="1.58" height="1.58" style="fill:#fff"/><rect x="30.04" y="9.49" width="1.58" height="1.58" style="fill:#fff"/><rect x="30.04" y="14.23" width="1.58" height="3.16" style="fill:#fff"/><rect x="30.04" y="18.97" width="1.58" height="3.16" style="fill:#fff"/><rect x="30.04" y="25.3" width="1.58" height="1.58" style="fill:#fff"/><rect x="30.04" y="28.46" width="1.58" height="1.58" style="fill:#fff"/><rect x="31.62" width="1.58" height="11.07" style="fill:#fff"/><rect x="31.62" y="12.65" width="1.58" height="1.58" style="fill:#fff"/><rect x="31.62" y="18.97" width="1.58" height="1.58" style="fill:#fff"/><rect x="31.62" y="23.72" width="1.58" height="1.58" style="fill:#fff"/><rect x="31.62" y="28.46" width="1.58" height="1.58" style="fill:#fff"/><rect x="31.62" y="31.62" width="1.58" height="1.58" style="fill:#fff"/></g></g></svg>